<svg version="1.1" viewBox="0 0 9744.9 950.12" xmlns="http://www.w3.org/2000/svg" xmlns:xlink="http://www.w3.org/1999/xlink"><defs><linearGradient id="a" x2="1" gradientTransform="matrix(-954.52 -1344.1 -1344.1 954.52 2716.3 2356)" gradientUnits="userSpaceOnUse"><stop stop-color="#fff" offset="0"/><stop stop-color="#fff" offset=".37"/><stop stop-color="#6900ff" offset=".71"/><stop stop-color="#6900ff" offset="1"/></linearGradient><linearGradient id="c" x1="-.24" x2="1" y1="-.13" gradientTransform="matrix(-360.42 707.06 -707.06 -360.42 492.87 466.1)" gradientUnits="userSpaceOnUse" xlink:href="#a"><stop stop-color="#fff" offset="0"/><stop stop-color="#fff" offset=".41"/><stop stop-color="#6900ff" offset=".8"/><stop stop-color="#6900ff" offset="1"/></linearGradient><linearGradient id="b" x2="1" gradientTransform="matrix(-1272.7 1792.1 -1792.1 -1272.7 1239.5 -621.92)" gradientUnits="userSpaceOnUse" xlink:href="#a"/></defs><g stroke-width="1.3333"><path d="m282.17 53.379c-155.84 0-282.17 126.33-282.17 282.17v614.57h614.57c39.812 0 77.691-8.2665 112.09-23.199 100.12-43.279 170.08-142.93 170.08-258.95v-614.58z" fill="#fff" opacity=".5"/><path d="m302.03 107.24c-137.14 0-248.3 111.16-248.3 248.3v193.88l0.06666 0.19999c0.47999 2.0533 4.2932 16.333 14.36 37.892 40.892 78.611 183.06 292.86 625.04 288.45 88.091-38.092 149.66-125.78 149.66-227.89v-540.83z" fill="url(#b)"/><path d="m54.439 895.62v-341.44a254.93 254.93 0 0 0 13.146 33.546c40.386 86.851 180.81 288.89 611.68 288.9h0.0267l10.613-0.04a245.78 245.78 0 0 1-95.304 19.04z" fill="#fff"/><path d="m53.772 549.37v346.94h540.83c35.039 0 68.372-7.2798 98.638-20.399-4.6932 0.04-9.3331 0.0667-13.96 0.0667-431.02 0-571.04-202.35-611.08-288.53-10.066-21.546-13.866-35.826-14.36-37.866zm1.3333 9.1598a271.53 271.53 0 0 0 11.88 29.493c40.426 86.984 181.04 289.29 612.29 289.29l7.1865-0.0133a245.11 245.11 0 0 1-91.864 17.693h-539.49z" fill="#fff"/><path d="m68.172 587.5c42.479 89.664 209.81 327.46 625.04 288.45-244.9 4.2932-256.53-153.06-215.11-233.63-224.35 32.959-381.03 6.9598-424.35-92.904 0.47999 2.0533 4.2266 16.6 14.426 38.106" fill="url(#c)"/></g><path d="m742.42 53.379c0 14.746 0.79998 32.133 0.79998 52.079 0 52.879-5.6799 97.464-15.506 97.464" fill="none" opacity=".56" stroke="#7717ff" stroke-miterlimit="10" stroke-opacity=".3" stroke-width="13.333"/><g stroke-width="1.3333"><path d="m774.69 205.91a34.079 34.079 0 1 1-68.158 0 34.079 34.079 0 0 1 68.158 0" fill="#fff"/><path d="m547.36 491.23h-77.865v76.065h-57.719v-76.065h-77.398v-54.585h77.398v-76.065h57.732v76.065h77.851z" opacity=".22"/><path d="m566.83 472.43h-77.865v76.065h-57.719v-76.065h-77.398v-54.585h77.398v-76.065h57.732v76.065h77.851z" fill="#fff"/></g><path d="m725.22 53.379c0-28.626 8.8931-45.759 15.36-45.759 9.8131 0 17.773 42.852 17.773 95.731 0 52.852-7.9598 95.718-17.773 95.718" fill="none" stroke="#fff" stroke-miterlimit="10" stroke-width="15.24"/><path d="m225.5 808.56c-8.6664 0-15.56 2.7466-20.639 8.2265-4.7732 5.1332-7.1598 11.453-7.1598 18.946 0 2.3333 0.26666 4.6266 0.79998 6.8532 0.53332 2.24 1.3066 4.3599 2.3599 6.3598 1.04 2 2.3466 3.8666 3.9066 5.5465a23.986 23.986 0 0 0 5.4265 4.3999c2.0666 1.2266 4.3732 2.1866 6.9198 2.8666 2.5466 0.67998 5.3332 1.04 8.3865 1.04 2.9733 0 5.7199-0.34666 8.2398-1.0133 2.5199-0.67998 4.7999-1.6266 6.8532-2.8399 2.0533-1.2266 3.8666-2.6666 5.4399-4.3599a26.079 26.079 0 0 0 6.3865-11.92c0.53332-2.2666 0.79998-4.5732 0.79998-6.9332 0-3.9066-0.63999-7.5332-1.9466-10.853a24.799 24.799 0 0 0-5.5732-8.6131c-2.3999-2.3999-5.3199-4.2932-8.7331-5.6532a30.666 30.666 0 0 0-11.466-2.0533zm-126.57 1.1466v51.905h16.293v-17.773h3.1732c3.2666 0 6.3332-0.38665 9.1998-1.16a24.533 24.533 0 0 0 7.5065-3.3466c2.1333-1.4666 3.8266-3.2399 5.0532-5.3332 1.2266-2.0933 1.84-4.4532 1.84-7.1198 0-2.7199-0.53332-5.1465-1.6266-7.2798-1.0666-2.1333-2.6533-3.9199-4.7199-5.3999a22.479 22.479 0 0 0-7.6265-3.3599c-3.0266-0.75998-6.4798-1.1333-10.36-1.1333zm49.039 0v51.905h16.52v-19.68h3.5332l2.0666 8.3998c2.3333 8.3065 8.0531 12.466 17.186 12.466 1.4133 0 3.7332-0.45332 6.9598-1.3333v-12.306a57.065 57.065 0 0 1-2.6133 0.29333c-1.2533 0-2.32-0.0933-3.1999-0.28-0.86665-0.18666-1.6-0.47998-2.1866-0.87997-0.58665-0.39999-1.0666-0.93331-1.4666-1.6a11.6 11.6 0 0 1-0.99997-2.3733l-0.39999-1.5866-0.18666-0.73331c-0.08-0.29333-0.14667-0.65332-0.22666-1.0666l-0.33333-1.8133c1.5733-0.67998 2.9866-1.4666 4.2266-2.3466 1.24-0.89331 2.2933-1.9066 3.1466-3.0532a12.826 12.826 0 0 0 1.9733-3.8666c0.45333-1.44 0.67999-3.0666 0.67999-4.8799 0-2.4666-0.55999-4.6399-1.68-6.5332-1.12-1.8933-2.6533-3.4799-4.5999-4.7732-1.96-1.2933-4.2532-2.2666-6.8798-2.9466-2.6266-0.66665-5.4399-1.0133-8.4398-1.0133zm-32.746 10.84h3.2532c1.1733 0 2.2666 0.13333 3.2799 0.39999a8.2665 8.2665 0 0 1 2.6399 1.2c0.74665 0.53332 1.3333 1.1866 1.76 1.9733 0.42665 0.78664 0.65331 1.7066 0.65331 2.7599 0 2.1733-0.74664 3.7866-2.2133 4.8665-1.4666 1.0933-3.5199 1.6266-6.1332 1.6266-0.73332 0-1.3733 0-1.9066-0.04-0.53332-0.0267-0.98665-0.0533-1.3333-0.10666zm49.265 0.35999h5.1599c1.1066 0 2.1333 0.08 3.0933 0.21333 0.95997 0.13333 1.8 0.37333 2.5066 0.73332 0.71998 0.35999 1.28 0.83998 1.68 1.4666 0.39999 0.63998 0.61332 1.4266 0.61332 2.3866 0 1.0666-0.22666 1.92-0.66665 2.5999-0.43999 0.66665-1.04 1.2133-1.7733 1.6266a8.6931 8.6931 0 0 1-2.4933 0.87998c-0.91998 0.18666-1.8666 0.30666-2.8133 0.38666l-2.4399 0.10666h-2.8666zm61.012 0.89331a10.4 10.4 0 0 1 7.9065 4.0666c0.94664 1.2266 1.6666 2.6666 2.1733 4.3199a18.933 18.933 0 0 1 0.14666 10.16c-0.39999 1.6-1.04 3.0399-1.92 4.3199a10.613 10.613 0 0 1-3.3466 3.1732 9.4264 9.4264 0 0 1-4.9599 1.24 9.8398 9.8398 0 0 1-7.9865-3.8532 12.8 12.8 0 0 1-2.1733-4.2399 18.013 18.013 0 0 1-0.75998-5.3332c0-1.6133 0.21333-3.2399 0.61332-4.8799s1.0533-3.1066 1.92-4.4266a9.9331 9.9331 0 0 1 8.3865-4.5466z" fill="#7717ff" stroke-width="1.3333"/><g transform="translate(.032889 47.917)"><g transform="matrix(20.209 0 0 20.209 -18931 -22621)" style="shape-inside:url(#rect17115);white-space:pre" aria-label="Add to Calendar Docs"><g fill="#9755ff"><path d="m996.11 1127.6h12.148l7.9687 27.5h-9.414l-1.0547-5.2735h-7.1094l-1.1328 5.2735h-9.0234zm8.711 17.305-2.6172-12.031-2.6953 12.031z"/><path d="m1027 1134.7q2.2657 0 3.9063 0.9375t2.6562 3.1055v-10.078l8.4375-1.25v27.617h-8.4375v-3.711q-0.9375 2.0117-2.5586 3.0274-1.6211 0.9961-4.0429 0.9961-2.0899 0-3.8672-0.8399-1.7774-0.8594-3.086-2.2851-1.289-1.4258-2.0312-3.2813-0.7422-1.875-0.7422-3.9062 0-2.1875 0.7813-4.0821 0.8007-1.8945 2.1484-3.2812 1.3476-1.3867 3.1055-2.168 1.7773-0.8008 3.7304-0.8008zm6.5625 10.176q-0.039-0.7812-0.3711-1.4844-0.332-0.7031-0.8789-1.2109-0.5273-0.5274-1.2304-0.8203-0.7032-0.3125-1.4649-0.3125-0.8594 0-1.6015 0.332-0.7227 0.3125-1.25 0.8594-0.5274 0.5469-0.8399 1.2695-0.293 0.7227-0.293 1.5235 0 0.8593 0.3125 1.582 0.3321 0.7226 0.8789 1.2695 0.5469 0.5274 1.2696 0.8399 0.7226 0.2929 1.5234 0.2929 0.8399 0 1.5625-0.332 0.7227-0.332 1.25-0.8789 0.5274-0.5469 0.8203-1.2695 0.3125-0.7227 0.3125-1.5039z"/><path d="m1054.9 1134.7q2.2656 0 3.9062 0.9375t2.6563 3.1055v-10.078l8.4375-1.25v27.617h-8.4375v-3.711q-0.9375 2.0117-2.5586 3.0274-1.6211 0.9961-4.043 0.9961-2.0899 0-3.8672-0.8399-1.7773-0.8594-3.0859-2.2851-1.2891-1.4258-2.0313-3.2813-0.7422-1.875-0.7422-3.9062 0-2.1875 0.7813-4.0821 0.8008-1.8945 2.1484-3.2812 1.3477-1.3867 3.1055-2.168 1.7773-0.8008 3.7305-0.8008zm6.5625 10.176q-0.039-0.7812-0.3711-1.4844-0.3321-0.7031-0.8789-1.2109-0.5274-0.5274-1.2305-0.8203-0.7031-0.3125-1.4649-0.3125-0.8593 0-1.6015 0.332-0.7227 0.3125-1.25 0.8594-0.5274 0.5469-0.8399 1.2695-0.2929 0.7227-0.2929 1.5235 0 0.8593 0.3125 1.582 0.332 0.7226 0.8789 1.2695 0.5468 0.5274 1.2695 0.8399 0.7227 0.2929 1.5234 0.2929 0.8399 0 1.5625-0.332 0.7227-0.332 1.25-0.8789 0.5274-0.5469 0.8204-1.2695 0.3125-0.7227 0.3125-1.5039z"/><path d="m1095.9 1154q-2.7149 1.3672-6.0156 1.3672-1.6993 0-3.0274-0.5469-1.3281-0.5664-2.2461-1.6016-0.8984-1.0547-1.3672-2.5195-0.4687-1.4844-0.4687-3.3399l0.039-7.3828h-2.539v-4.9609h3.164l3.711-7.5781h4.0625v7.5781h4.6094v4.9609h-4.6094v6.7969q0 1.0547 0.6836 1.582 0.6836 0.5274 1.8554 0.5274 0.918 0 1.836-0.4688z"/><path d="m1105.7 1145q0 1.0937 0.3125 1.9141 0.332 0.8203 0.8594 1.3671 0.5273 0.5469 1.2109 0.8204 0.6836 0.2734 1.3867 0.2734 0.7032 0 1.3672-0.2734 0.6836-0.2735 1.211-0.8204 0.5468-0.5468 0.8593-1.3671 0.3321-0.8204 0.3321-1.9141 0-1.0938-0.3321-1.9141-0.3125-0.8203-0.8593-1.3476-0.5274-0.5469-1.211-0.8203-0.664-0.2735-1.3672-0.2735-0.7031 0-1.3867 0.2735-0.6836 0.2734-1.2109 0.8203-0.5274 0.5273-0.8594 1.3476-0.3125 0.8203-0.3125 1.9141zm-7.8125 0q0.098-2.5195 1.0352-4.4336 0.957-1.9141 2.5195-3.2227t3.6133-1.9726q2.0703-0.6641 4.3945-0.6641 2.5391 0 4.6484 0.7617 2.1094 0.7618 3.6329 2.1289 1.5234 1.3477 2.3632 3.2422 0.8399 1.8946 0.8399 4.1602 0 1.8359-0.4883 3.3203-0.4688 1.4844-1.2891 2.6367-0.8203 1.1328-1.9336 1.9727-1.1132 0.8398-2.4023 1.3867-1.2891 0.5273-2.6758 0.7812-1.3672 0.254-2.7344 0.254-2.5781 0-4.707-0.7422-2.1094-0.7618-3.6328-2.1289-1.5234-1.3672-2.3633-3.2618-0.8203-1.914-0.8203-4.2187z"/><path d="m1146.5 1148.5q0.6836 0 1.2695-0.059 0.586-0.078 1.1524-0.2148 0.5859-0.1368 1.1914-0.3516 0.6055-0.2149 1.3477-0.5078l1.0937 6.3476q-3.4766 2.0118-7.5781 2.0118-5.8008 0-9.9414-3.9063-4.336-4.0625-4.3946-10.488 0-3.125 1.0743-5.7617 1.0742-2.6367 2.9687-4.5312 1.8945-1.9141 4.4727-2.9688 2.5781-1.0742 5.5859-1.0742 4.2773 0 7.7734 1.9922l-1.0546 6.2109q-2.8711-1.0937-5.1954-1.0937-3.2617 0-4.9609 1.8945-1.6797 1.875-1.6797 5.293 0 1.6992 0.4492 3.0468 0.4688 1.3282 1.3477 2.2657 0.8789 0.9179 2.1484 1.4062 1.2891 0.4883 2.9297 0.4883z"/><path d="m1170.6 1151.4q-0.9375 1.9531-2.5391 2.9883-1.6015 1.0352-4.0234 1.0352-1.9531 0-3.7305-0.7813-1.7773-0.8008-3.125-2.1875-1.3476-1.4062-2.1484-3.3203t-0.8008-4.1602q0-2.2265 0.8008-4.1015 0.8203-1.875 2.1679-3.2227 1.3672-1.3672 3.125-2.1094 1.7774-0.7617 3.711-0.7617 0.9961 0 1.9531 0.2735 0.9766 0.2539 1.8359 0.8398 0.8789 0.5664 1.5821 1.4453 0.7226 0.8789 1.1914 2.1094v-4.668h8.3984v20.332h-8.3984zm0-6.4453q-0.039-0.7812-0.3711-1.4844-0.332-0.7031-0.8789-1.2109-0.5274-0.5274-1.2305-0.8203-0.7031-0.3125-1.4648-0.3125-0.8594 0-1.6016 0.332-0.7227 0.3125-1.2695 0.8594-0.5274 0.5273-0.8399 1.25-0.3125 0.7226-0.3125 1.543 0 0.8593 0.3321 1.6015 0.332 0.7227 0.8789 1.25 0.5664 0.5274 1.289 0.8399 0.7227 0.2929 1.5235 0.2929 0.8203 0 1.5234-0.3125t1.2305-0.8398q0.5273-0.5274 0.8398-1.211 0.3125-0.7031 0.3516-1.4648z"/><path d="m1196.2 1154q-2.7149 1.3672-6.0156 1.3672-1.6993 0-3.0274-0.5469-1.3281-0.5664-2.2461-1.6016-0.8984-1.0547-1.3672-2.5195-0.4687-1.4844-0.4687-3.3399v-18.672l8.4375-1.25v19.336q0 1.0742 0.6836 1.6016 0.6836 0.5078 1.8555 0.5078 0.8984 0 1.8359-0.4688z"/><path d="m1209.8 1149.8q2.7344 0 5.8984-1.4063l0.9766 5.3711q-3.6328 1.6407-8.1641 1.6407-2.5195 0-4.6093-0.7618-2.0704-0.7812-3.5743-2.1484-1.4843-1.3867-2.3242-3.2813-0.8203-1.8945-0.8203-4.121 0-2.3438 0.8594-4.2383 0.8789-1.9141 2.3828-3.2617 1.5039-1.3672 3.5156-2.0899 2.0117-0.7422 4.2969-0.7422 2.3047 0 4.043 0.7813 1.7382 0.7617 2.8906 2.1093 1.1719 1.3282 1.7383 3.125 0.5859 1.7774 0.5859 3.8086 0 0.2735-0.02 0.5274t-0.059 0.4883l-11.992 1.5625q0.4687 1.4062 1.5625 2.0312 1.0937 0.6055 2.8125 0.6055zm1.4844-7.6758q-0.6836-2.5-3.0469-2.5-0.7422 0-1.3281 0.293-0.586 0.2929-0.9961 0.8203-0.3906 0.5078-0.6055 1.2305-0.2148 0.7031-0.2344 1.5234z"/><path d="m1220.4 1135.3h8.0469v4.082q1.1719-2.3633 3.0078-3.5156 1.8555-1.1524 4.336-1.1524 1.9921 0 3.5156 0.7422 1.5234 0.7422 2.5586 2.1094 1.0547 1.3476 1.582 3.2617 0.5469 1.8945 0.5469 4.2188v10h-8.3985v-10.82q0-0.7812-0.1562-1.4453-0.1367-0.664-0.4688-1.1328-0.3125-0.4883-0.8007-0.7422-0.4883-0.2734-1.1914-0.2734-0.8594 0-1.5821 0.4297-0.7226 0.4101-1.2695 1.0156-0.5273 0.6055-0.8594 1.2695-0.332 0.6446-0.4297 1.1133v10.586h-8.4375z"/><path d="m1256.7 1134.7q2.2656 0 3.9062 0.9375 1.6407 0.9375 2.6563 3.1055v-10.078l8.4375-1.25v27.617h-8.4375v-3.711q-0.9375 2.0117-2.5586 3.0274-1.6211 0.9961-4.043 0.9961-2.0898 0-3.8672-0.8399-1.7773-0.8594-3.0859-2.2851-1.2891-1.4258-2.0312-3.2813-0.7422-1.875-0.7422-3.9062 0-2.1875 0.7812-4.0821 0.8008-1.8945 2.1485-3.2812 1.3476-1.3867 3.1054-2.168 1.7774-0.8008 3.7305-0.8008zm6.5625 10.176q-0.039-0.7812-0.3711-1.4844-0.332-0.7031-0.8789-1.2109-0.5273-0.5274-1.2305-0.8203-0.7031-0.3125-1.4648-0.3125-0.8594 0-1.6016 0.332-0.7226 0.3125-1.25 0.8594-0.5273 0.5469-0.8398 1.2695-0.293 0.7227-0.293 1.5235 0 0.8593 0.3125 1.582 0.332 0.7226 0.8789 1.2695 0.5469 0.5274 1.2695 0.8399 0.7227 0.2929 1.5235 0.2929 0.8398 0 1.5625-0.332 0.7226-0.332 1.25-0.8789 0.5273-0.5469 0.8203-1.2695 0.3125-0.7227 0.3125-1.5039z"/><path d="m1291.2 1151.4q-0.9375 1.9531-2.5391 2.9883t-4.0234 1.0352q-1.9532 0-3.7305-0.7813-1.7774-0.8008-3.125-2.1875-1.3477-1.4062-2.1485-3.3203-0.8007-1.9141-0.8007-4.1602 0-2.2265 0.8007-4.1015 0.8204-1.875 2.168-3.2227 1.3672-1.3672 3.125-2.1094 1.7774-0.7617 3.711-0.7617 0.996 0 1.9531 0.2735 0.9765 0.2539 1.8359 0.8398 0.8789 0.5664 1.582 1.4453 0.7227 0.8789 1.1915 2.1094v-4.668h8.3984v20.332h-8.3984zm0-6.4453q-0.039-0.7812-0.3711-1.4844-0.3321-0.7031-0.8789-1.2109-0.5274-0.5274-1.2305-0.8203-0.7031-0.3125-1.4649-0.3125-0.8593 0-1.6015 0.332-0.7227 0.3125-1.2696 0.8594-0.5273 0.5273-0.8398 1.25-0.3125 0.7226-0.3125 1.543 0 0.8593 0.332 1.6015 0.3321 0.7227 0.8789 1.25 0.5664 0.5274 1.2891 0.8399 0.7227 0.2929 1.5234 0.2929 0.8204 0 1.5235-0.3125t1.2304-0.8398q0.5274-0.5274 0.8399-1.211 0.3125-0.7031 0.3516-1.4648z"/><path d="m1303.6 1135.3h8.4375v4.082q0.957-2.4219 2.539-3.5352 1.6016-1.1328 3.6719-1.1328l1.1719 6.543q-3.8086 0-5.6055 0.8203-1.7773 0.8008-1.7773 2.5781v10.391h-8.4375z"/></g><g fill="#333"><path d="m1329.6 1127.6h11.953q3.3399 0 6.0547 1.0156 2.7148 0.9961 4.6289 2.7929 1.9336 1.7969 2.9883 4.2969 1.0547 2.4805 1.0547 5.4492 0 3.125-1.0547 5.7032-1.0352 2.5586-2.9688 4.3945t-4.6484 2.8516q-2.7148 0.9961-6.0547 0.9961h-11.953zm11.953 20.312q1.5039 0 2.5781-0.6446 1.0938-0.6445 1.7969-1.6406t1.0352-2.207q0.332-1.211 0.332-2.3438 0-1.3672-0.4297-2.5195-0.4101-1.1524-1.1719-1.9922-0.7617-0.8398-1.8164-1.3086-1.0547-0.4687-2.3242-0.4687h-3.125v13.125z"/><path d="m1366.4 1145q0 1.0937 0.3125 1.9141 0.3321 0.8203 0.8594 1.3671 0.5274 0.5469 1.2109 0.8204 0.6836 0.2734 1.3868 0.2734 0.7031 0 1.3672-0.2734 0.6835-0.2735 1.2109-0.8204 0.5469-0.5468 0.8594-1.3671 0.332-0.8204 0.332-1.9141 0-1.0938-0.332-1.9141-0.3125-0.8203-0.8594-1.3476-0.5274-0.5469-1.2109-0.8203-0.6641-0.2735-1.3672-0.2735-0.7032 0-1.3868 0.2735-0.6835 0.2734-1.2109 0.8203-0.5273 0.5273-0.8594 1.3476-0.3125 0.8203-0.3125 1.9141zm-7.8125 0q0.098-2.5195 1.0352-4.4336 0.957-1.9141 2.5195-3.2227t3.6133-1.9726q2.0703-0.6641 4.3945-0.6641 2.5391 0 4.6485 0.7617 2.1093 0.7618 3.6328 2.1289 1.5234 1.3477 2.3633 3.2422 0.8398 1.8946 0.8398 4.1602 0 1.8359-0.4883 3.3203-0.4687 1.4844-1.289 2.6367-0.8203 1.1328-1.9336 1.9727-1.1133 0.8398-2.4024 1.3867-1.289 0.5273-2.6758 0.7812-1.3671 0.254-2.7343 0.254-2.5782 0-4.7071-0.7422-2.1093-0.7618-3.6328-2.1289-1.5234-1.3672-2.3633-3.2618-0.8203-1.914-0.8203-4.2187z"/><path d="m1399.8 1141.7q-2.1094-0.664-3.9063-0.664-0.9179 0-1.6601 0.2929-0.7227 0.293-1.25 0.8203-0.5078 0.5274-0.8008 1.2891-0.2734 0.7422-0.2734 1.6602 0 0.9179 0.2734 1.6796 0.293 0.7422 0.8203 1.2891 0.5274 0.5469 1.2696 0.8398 0.7617 0.293 1.6992 0.293 1.7773 0 3.75-0.664l0.7812 5.5859q-1.5039 0.7812-2.9492 1.0351-1.4258 0.254-3.1055 0.254-2.3632 0-4.3554-0.7422t-3.4375-2.0899q-1.4453-1.3476-2.2657-3.2422-0.8007-1.914-0.8007-4.2382 0-2.3243 0.8789-4.2188 0.8789-1.9141 2.3632-3.2617 1.504-1.3672 3.4766-2.1094 1.9727-0.7422 4.1406-0.7422 0.9571 0 1.7188 0.078 0.7812 0.059 1.4844 0.254 0.7031 0.1757 1.4062 0.4882t1.5234 0.8008z"/><path d="m1412.1 1139.7q-2.3828 0-2.3828 0.8203 0 0.3125 0.1758 0.5664 0.1757 0.2344 0.4687 0.4297 0.293 0.1758 0.6445 0.293 0.3516 0.1172 0.7032 0.1562 1.5429 0.2344 2.8515 0.7227 1.3281 0.4687 2.2852 1.2695 0.9765 0.8008 1.5234 1.9727 0.5664 1.1523 0.5664 2.7539 0 1.582-0.5664 2.832-0.5469 1.2305-1.543 2.0898-0.996 0.8594-2.3437 1.3086-1.3477 0.4493-2.9297 0.4493-2.5586 0-4.6875-0.2344-2.1094-0.2344-3.8672-1.0156l0.8985-4.6094q0.6445 0.1758 1.1132 0.3125 0.4883 0.1367 0.8008 0.1953 0.293 0.059 0.7422 0.1562 0.4492 0.078 0.957 0.1563 0.5274 0.078 1.0547 0.1367 0.5274 0.059 0.9571 0.059 1.9921 0 1.9921-0.9375-0.059-0.3711-0.3125-0.6445-0.2343-0.293-0.6054-0.4883-0.3711-0.2149-0.8594-0.3516-0.4687-0.1367-0.9961-0.2343-1.5234-0.293-2.6953-0.7813-1.1523-0.4883-1.9336-1.25-0.7812-0.7812-1.1914-1.8945-0.3906-1.1328-0.3906-2.6758 0.078-1.7578 0.7422-2.9883 0.664-1.25 1.7968-2.0312 1.1328-0.8008 2.6563-1.1524 1.543-0.3711 3.3594-0.3711 1.8945 0 3.5742 0.2149 1.6797 0.1953 3.1445 0.8984l-0.8594 4.7656q-2.9297-0.8984-4.8437-0.8984z"/></g></g></g></svg>
